<svg width="62" height="62" viewBox="0 0 62 62" fill="none" xmlns="http://www.w3.org/2000/svg">
<path d="M24.6708 41.0233L47.4093 18.2874C47.6608 18.036 47.957 17.9016 48.298 17.8844C48.639 17.8672 48.9516 18.0015 49.2358 18.2874C49.5199 18.5733 49.6629 18.8807 49.6646 19.2097C49.6663 19.5386 49.5242 19.8452 49.2383 20.1293L26.133 43.2502C25.7145 43.6687 25.2271 43.8779 24.6708 43.8779C24.1146 43.8779 23.6272 43.6687 23.2087 43.2502L12.7462 32.7877C12.4947 32.5362 12.3638 32.2374 12.3535 31.8912C12.3432 31.5451 12.4792 31.2299 12.7617 30.9457C13.0441 30.6616 13.3515 30.5195 13.6839 30.5195C14.0163 30.5195 14.3237 30.6616 14.6062 30.9457L24.6708 41.0233Z" fill="white"/>
</svg>
