<svg width="57" height="57" viewBox="0 0 57 57" fill="none" xmlns="http://www.w3.org/2000/svg">
<path d="M29.3526 34.9695C20.8026 34.9695 11.2551 41.9235 11.2551 50.4688M29.3526 27.2294C31.4011 27.2343 33.4051 26.6315 35.1109 25.4972C36.8167 24.3629 38.1478 22.7482 38.9357 20.8573C39.5254 19.4436 39.7937 17.9165 39.7212 16.3865C39.6488 14.8564 39.2374 13.3616 38.5168 12.0099C37.7962 10.6582 36.7843 9.48348 35.5544 8.57052C34.3244 7.65756 32.907 7.02918 31.4046 6.73078C29.9027 6.43129 28.3531 6.46852 26.8673 6.8398C25.3815 7.21107 23.9965 7.90715 22.812 8.87792C21.6274 9.84869 20.6729 11.07 20.0171 12.454C19.3612 13.8379 19.0203 15.35 19.019 16.8815C19.0184 19.6233 20.1061 22.2531 22.0432 24.1934C23.9804 26.1337 26.6085 27.2256 29.3503 27.2294M31.4973 43.6098L35.5063 47.6212C35.6471 47.7646 35.8151 47.8785 36.0004 47.9562C36.1857 48.034 36.3847 48.074 36.5857 48.074C36.7867 48.074 36.9856 48.034 37.171 47.9562C37.3563 47.8785 37.5243 47.7646 37.6651 47.6212L45.7472 39.539" stroke="white" stroke-width="1.5" stroke-linecap="round" stroke-linejoin="round"/>
</svg>
